<?xml version="1.0" encoding="iso-8859-1"?>
<!-- Generator: Adobe Illustrator 19.0.0, SVG Export Plug-In . SVG Version: 6.00 Build 0)  -->
<svg xmlns="http://www.w3.org/2000/svg" xmlns:xlink="http://www.w3.org/1999/xlink" version="1.1" id="Capa_1" x="0px" y="0px" viewBox="0 0 512 512" style="enable-background:new 0 0 512 512;" xml:space="preserve" width="512px" height="512px">
<g>
	<g>
		<path d="M423.871,194.722c-1.568-1.568-3.169-3.09-4.791-4.581v-79.66c0-1.989-0.79-3.896-2.196-5.304l-83.61-83.61    c-1.407-1.406-3.314-2.196-5.304-2.196h-66.252l1.241-11.031c0.238-2.122-0.438-4.245-1.861-5.837    C259.675,0.911,257.639,0,255.505,0h-37.69c-2.135,0-4.169,0.91-5.592,2.502c-1.423,1.592-2.1,3.715-1.861,5.837l1.241,11.031    H50.359c-4.142,0-7.5,3.357-7.5,7.5v56.8c0,4.143,3.358,7.5,7.5,7.5c4.142,0,7.5-3.357,7.5-7.5v-49.3h155.432l2.837,25.211    c0.427,3.794,3.636,6.661,7.453,6.661h26.158c3.817,0,7.026-2.867,7.453-6.661l2.837-25.211h60.497l0.579,75.536    c0.031,4.097,3.346,7.411,7.442,7.442l75.532,0.579v60.038c-25.967-18.52-56.966-28.512-89.505-28.512    c-31.886,0-62.293,9.6-87.937,27.417H103.565c-4.142,0-7.5,3.357-7.5,7.5s3.358,7.5,7.5,7.5h104.653    c-0.986,0.937-1.964,1.886-2.93,2.852c-6.955,6.955-13.155,14.461-18.581,22.41h-83.142c-4.142,0-7.5,3.357-7.5,7.5    s3.358,7.5,7.5,7.5h74.109c-3.929,7.46-7.236,15.219-9.88,23.219h-64.229c-4.142,0-7.5,3.357-7.5,7.5c0,4.143,3.358,7.5,7.5,7.5    h60.109c-2.416,10.929-3.66,22.2-3.66,33.663c0,17.923,3.024,35.478,8.987,52.178c0.686,1.92,2.124,3.479,3.983,4.315    c0.979,0.441,2.029,0.662,3.08,0.662c0.947,0,1.895-0.18,2.792-0.539l59.536-23.878c3.662-1.469,5.56-5.523,4.342-9.276    c-7.178-22.118-3.709-46.748,9.281-65.886c2.326-3.427,1.434-8.091-1.994-10.417c-3.427-2.326-8.091-1.434-10.417,1.993    c-14.255,21.002-18.949,47.513-13.043,72.17l-45.851,18.389c-3.782-12.825-5.696-26.149-5.696-39.711    c0-37.275,14.519-72.322,40.881-98.685c26.359-26.359,61.404-40.876,98.68-40.876c37.281,0,72.33,14.517,98.689,40.876    c26.359,26.358,40.876,61.407,40.876,98.689c0,4.143,3.357,7.5,7.5,7.5s7.5-3.357,7.5-7.5    C469.139,262.729,453.062,223.914,423.871,194.722z M243.035,51.242h-12.751l-2.82-25.063c-0.006-0.065-0.014-0.13-0.022-0.195    L226.207,15h20.908L243.035,51.242z M336.048,102.405l-0.439-57.288l57.728,57.727L336.048,102.405z" fill="#FFFFFF"/>
	</g>
</g>
<g>
	<g>
		<path d="M460.181,326.205c-4.057-0.819-8.019,1.801-8.842,5.859c-5.42,26.721-18.586,51.146-38.075,70.634    c-26.361,26.362-61.409,40.881-98.685,40.881c-13.563,0-26.888-1.913-39.711-5.695l18.385-45.841    c30.675,7.441,62.844-1.443,85.378-23.978c35.317-35.318,35.317-92.785,0-128.104c-15.302-15.301-35.626-24.618-57.23-26.236    c-21.371-1.605-42.63,4.386-59.874,16.857c-3.356,2.428-4.109,7.116-1.682,10.473c2.428,3.355,7.118,4.108,10.473,1.682    c29.73-21.505,71.736-18.14,97.706,7.832c29.47,29.469,29.47,77.42,0,106.89c-20.192,20.192-49.662,27.241-76.906,18.4    c-3.756-1.22-7.809,0.681-9.276,4.342l-23.878,59.536c-0.759,1.893-0.715,4.013,0.122,5.872c0.838,1.859,2.396,3.297,4.316,3.983    c16.697,5.963,34.253,8.986,52.178,8.986c32.534,0,63.532-9.993,89.5-28.515V497H57.859V115c0-4.143-3.358-7.5-7.5-7.5    c-4.142,0-7.5,3.357-7.5,7.5v389.5c0,4.143,3.358,7.5,7.5,7.5h361.22c4.143,0,7.5-3.357,7.5-7.5v-86.612    c1.623-1.492,3.224-3.014,4.792-4.583c21.578-21.579,36.16-48.641,42.169-78.259C466.863,330.987,464.241,327.029,460.181,326.205    z" fill="#FFFFFF"/>
	</g>
</g>
<g>
	<g>
		<path d="M256.318,419.088c-0.881-1.882-2.502-3.313-4.479-3.954c-11.381-3.691-21.47-9.879-29.985-18.394    c-8.515-8.517-14.705-18.604-18.396-29.985c-0.641-1.977-2.073-3.598-3.954-4.479c-1.881-0.882-4.044-0.943-5.972-0.169    l-59.535,23.877c-3.742,1.501-5.628,5.69-4.271,9.487c7.698,21.521,19.905,40.737,36.281,57.114c0,0.001,0,0.001,0,0.001    c16.375,16.375,35.592,28.581,57.115,36.28c0.833,0.299,1.686,0.44,2.525,0.44c2.981,0,5.791-1.79,6.961-4.71l23.878-59.536    C257.259,423.131,257.198,420.969,256.318,419.088z M221.444,472.139c-16.712-6.972-31.767-17.096-44.831-30.159v0.001    c-13.064-13.065-23.188-28.12-30.159-44.831l45.548-18.268c4.517,10.571,11.079,20.299,19.244,28.465    c8.165,8.165,17.893,14.727,28.465,19.244L221.444,472.139z" fill="#FFFFFF"/>
	</g>
</g>
<g>
	<g>
		<path d="M404.097,214.495c-50.166-50.162-131.789-50.161-181.954,0c-24.267,24.268-37.632,56.578-37.634,90.98    c0,4.142,3.357,7.5,7.5,7.5c4.142,0,7.5-3.357,7.5-7.5c0.001-30.396,11.807-58.939,33.24-80.373    c44.314-44.314,116.423-44.316,160.74,0.002c21.433,21.432,33.235,49.976,33.234,80.372s-11.804,58.938-33.234,80.367    c-22.988,22.989-54.843,35.038-87.415,33.024c-4.148-0.246-7.691,2.893-7.946,7.026c-0.254,4.134,2.892,7.691,7.026,7.946    c2.647,0.162,5.289,0.243,7.925,0.243c34.056-0.001,66.86-13.477,91.018-37.633c24.263-24.264,37.626-56.571,37.627-90.974    C441.725,271.071,428.362,238.76,404.097,214.495z" fill="#FFFFFF"/>
	</g>
</g>
<g>
	<g>
		<path d="M318.035,296.516h-9.84c-2.974,0-5.393-2.42-5.393-5.394s2.419-5.394,5.393-5.394h15.266    c0.359,3.808,3.565,6.786,7.467,6.786c4.143,0,7.5-3.357,7.5-7.5c0-7.877-6.408-14.286-14.285-14.286h-3.527v-7.879    c0-4.143-3.357-7.5-7.5-7.5s-7.5,3.357-7.5,7.5v8.061c-10.028,1.275-17.813,9.843-17.813,20.212    c0,11.245,9.148,20.394,20.393,20.394h9.84c2.974,0,5.393,2.419,5.393,5.393s-2.42,5.394-5.393,5.394H302.77    c-0.359-3.808-3.565-6.786-7.467-6.786c-4.143,0-7.5,3.357-7.5,7.5c0,7.877,6.408,14.286,14.285,14.286h3.527v7.879    c0,4.143,3.357,7.5,7.5,7.5s7.5-3.357,7.5-7.5v-8.061c10.028-1.275,17.813-9.843,17.813-20.212    C338.428,305.665,329.28,296.516,318.035,296.516z" fill="#FFFFFF"/>
	</g>
</g>
<g>
	<g>
		<path d="M147.432,81.051h-43.867c-4.142,0-7.5,3.357-7.5,7.5v43.867c0,4.143,3.358,7.5,7.5,7.5h43.867c4.142,0,7.5-3.357,7.5-7.5    V88.551C154.932,84.408,151.574,81.051,147.432,81.051z M139.932,124.918h-28.867V96.051h28.867V124.918z" fill="#FFFFFF"/>
	</g>
</g>
<g>
</g>
<g>
</g>
<g>
</g>
<g>
</g>
<g>
</g>
<g>
</g>
<g>
</g>
<g>
</g>
<g>
</g>
<g>
</g>
<g>
</g>
<g>
</g>
<g>
</g>
<g>
</g>
<g>
</g>
</svg>
