<?xml version="1.0" encoding="iso-8859-1"?>
<!-- Generator: Adobe Illustrator 19.0.0, SVG Export Plug-In . SVG Version: 6.00 Build 0)  -->
<svg xmlns="http://www.w3.org/2000/svg" xmlns:xlink="http://www.w3.org/1999/xlink" version="1.1" id="Layer_1" x="0px" y="0px" viewBox="0 0 512.146 512.146" style="enable-background:new 0 0 512.146 512.146;" xml:space="preserve" width="512" height="512">
<g>
	<rect x="42.636" y="72.124" style="fill:#F3A737;" width="354.752" height="440.022"/>
	<rect x="220.032" y="72.124" style="fill:#ED8635;" width="177.356" height="440.022"/>
	<polygon style="fill:#F0E645;" points="376.438,0 114.76,0 114.76,440.022 469.511,440.022 469.511,89.657  "/>
	<polygon style="fill:#F8C93B;" points="469.511,89.657 376.438,0 292.135,0 292.135,440.022 469.511,440.022  "/>
	<g>
		<rect x="181.276" y="262.546" style="fill:#094970;" width="221.718" height="30"/>
	</g>
	<rect x="292.135" y="262.546" style="fill:#07233E;" width="110.859" height="30"/>
	<g>
		<rect x="181.276" y="324.365" style="fill:#094970;" width="221.718" height="30"/>
	</g>
	<rect x="292.135" y="324.365" style="fill:#07233E;" width="110.859" height="30"/>
	<g>
		<path style="fill:#47A433;" d="M327.62,160.292c-0.455-10.65-4.31-18.119-12.466-24.193c-5.039-3.816-7.985-5.347-13.584-8.145    l-7.505-3.893c-1.243-0.682-2.912-1.829-4.84-3.155l-0.149-0.103c-3.115-2.444-3.689-4.382-3.689-7.293    c0-4.029,3.027-7.308,6.748-7.308c4.45,0,7.399,1.228,11.165,7.937l2.608,4.646l18.179-11.776l-2.039-4.014    c-4.32-8.503-10.43-14.104-18.2-16.699v-13.17h-21.188v13.085c-11.712,4.108-19.581,15.205-19.581,28.279    c0,8.736,2.928,15.586,9.011,20.992c5.257,4.526,9.392,7.058,17.617,10.796c11.672,5.559,15.611,9.219,15.611,14.507    c0,3.456-0.891,6.296-2.582,8.365c-2.262,2.654-5.186,3.838-9.481,3.838c-6.723,0-12.045-2.974-16.17-17.486l-1.792-6.304    l-19.258,11.655l0.713,3.459c2.923,14.174,12.882,25.148,25.912,28.976v12.917h21.188V193.2    c5.758-1.641,10.759-4.762,14.899-9.303c5.891-6.381,8.878-14.251,8.878-23.392L327.62,160.292z"/>
	</g>
	<path style="fill:#007D3A;" d="M303.3,114.14l2.608,4.646l18.179-11.776l-2.039-4.014c-4.32-8.503-10.43-14.104-18.2-16.699v-13.17   h-11.712v33.077C296.585,106.203,299.534,107.431,303.3,114.14z"/>
	<path style="fill:#007D3A;" d="M327.62,160.292c-0.455-10.65-4.31-18.119-12.466-24.193c-5.039-3.816-7.985-5.347-13.584-8.145   l-7.505-3.893c-0.559-0.306-1.214-0.718-1.93-1.186v24.592c9.786,4.911,13.182,8.417,13.182,13.317   c0,3.456-0.891,6.296-2.582,8.365c-2.262,2.654-5.186,3.838-9.481,3.838c-0.377,0-0.75-0.011-1.119-0.031v33.248h11.712V193.2   c5.758-1.641,10.759-4.762,14.899-9.303c5.891-6.381,8.878-14.251,8.878-23.392L327.62,160.292z"/>
	<polyline style="fill:#F3A737;" points="376.438,89.657 469.511,89.657 376.438,0 376.438,89.657  "/>
	<polyline style="fill:#ED8635;" points="376.438,89.657 469.511,89.657 376.438,0 376.438,89.657  "/>
</g>















</svg>
