<?xml version="1.0"?>
<svg xmlns="http://www.w3.org/2000/svg" height="512px" viewBox="-69 0 512 512" width="512px"><path d="m365.5 455c4.140625 0 7.5-3.359375 7.5-7.5v-383c0-4.140625-3.359375-7.5-7.5-7.5h-22.25v-20.75c0-4.140625-3.359375-7.5-7.5-7.5h-20.75v-21.25c0-4.140625-3.359375-7.5-7.5-7.5h-300c-4.140625 0-7.5 3.359375-7.5 7.5v24c0 4.140625 3.359375 7.5 7.5 7.5s7.5-3.359375 7.5-7.5v-16.5h285v425h-285v-375.5c0-4.140625-3.359375-7.5-7.5-7.5s-7.5 3.359375-7.5 7.5v383c0 4.140625 3.359375 7.5 7.5 7.5h20.75v21.25c0 4.140625 3.359375 7.5 7.5 7.5h22.25v20.75c0 4.140625 3.359375 7.5 7.5 7.5h300c4.140625 0 7.5-3.359375 7.5-7.5v-24.832031c0-4.144531-3.359375-7.5-7.5-7.5s-7.5 3.355469-7.5 7.5v17.332031h-285v-13.25h16.667969c4.140625 0 7.5-3.359375 7.5-7.5s-3.359375-7.5-7.5-7.5h-46.417969v-13.75h264.25c4.140625 0 7.5-3.359375 7.5-7.5v-403.75h13.25v425h-206.75c-4.140625 0-7.5 3.359375-7.5 7.5s3.359375 7.5 7.5 7.5h214.25c4.140625 0 7.5-3.359375 7.5-7.5v-404.25h14.75v375.5c0 4.140625 3.359375 7.5 7.5 7.5zm0 0" fill="#FFFFFF"/><path d="m44.800781 66.867188h78.105469c4.140625 0 7.5-3.355469 7.5-7.5 0-4.140626-3.359375-7.5-7.5-7.5h-78.105469c-4.140625 0-7.5 3.359374-7.5 7.5 0 4.144531 3.359375 7.5 7.5 7.5zm0 0" fill="#FFFFFF"/><path d="m44.800781 107.390625h226c4.144531 0 7.5-3.359375 7.5-7.5 0-4.144531-3.355469-7.5-7.5-7.5h-226c-4.140625 0-7.5 3.355469-7.5 7.5 0 4.140625 3.359375 7.5 7.5 7.5zm0 0" fill="#FFFFFF"/><path d="m44.800781 142.15625h179.222657c4.140624 0 7.5-3.359375 7.5-7.5s-3.359376-7.5-7.5-7.5h-179.222657c-4.140625 0-7.5 3.359375-7.5 7.5s3.359375 7.5 7.5 7.5zm0 0" fill="#FFFFFF"/><path d="m44.800781 199.222656h78.105469c4.140625 0 7.5-3.355468 7.5-7.5 0-4.140625-3.359375-7.5-7.5-7.5h-78.105469c-4.140625 0-7.5 3.359375-7.5 7.5 0 4.144532 3.359375 7.5 7.5 7.5zm0 0" fill="#FFFFFF"/><path d="m44.800781 239.746094h226c4.144531 0 7.5-3.359375 7.5-7.5s-3.355469-7.5-7.5-7.5h-226c-4.140625 0-7.5 3.359375-7.5 7.5s3.359375 7.5 7.5 7.5zm0 0" fill="#FFFFFF"/><path d="m44.800781 274.511719h179.222657c4.140624 0 7.5-3.359375 7.5-7.5s-3.359376-7.5-7.5-7.5h-179.222657c-4.140625 0-7.5 3.359375-7.5 7.5s3.359375 7.5 7.5 7.5zm0 0" fill="#FFFFFF"/><path d="m44.800781 331.578125h78.105469c4.140625 0 7.5-3.355469 7.5-7.5 0-4.140625-3.359375-7.5-7.5-7.5h-78.105469c-4.140625 0-7.5 3.359375-7.5 7.5 0 4.144531 3.359375 7.5 7.5 7.5zm0 0" fill="#FFFFFF"/><path d="m44.800781 372.101562h226c4.144531 0 7.5-3.359374 7.5-7.5 0-4.140624-3.355469-7.5-7.5-7.5h-226c-4.140625 0-7.5 3.359376-7.5 7.5 0 4.140626 3.359375 7.5 7.5 7.5zm0 0" fill="#FFFFFF"/><path d="m44.800781 406.867188h179.222657c4.140624 0 7.5-3.355469 7.5-7.5 0-4.140626-3.359376-7.5-7.5-7.5h-179.222657c-4.140625 0-7.5 3.359374-7.5 7.5 0 4.144531 3.359375 7.5 7.5 7.5zm0 0" fill="#FFFFFF"/></svg>
